<?xml version="1.0" encoding="UTF-8"?>
<svg version="1.1" xmlns="http://www.w3.org/2000/svg" width="172" height="156">
<path d="M0 0 C56.76 0 113.52 0 172 0 C172 51.48 172 102.96 172 156 C115.24 156 58.48 156 0 156 C0 104.52 0 53.04 0 0 Z " fill="#000000" transform="translate(0,0)"/>
<path d="M0 0 C2.44883791 1.12901436 4.85806671 2.28897807 7.265625 3.5 C7.97668396 3.85457275 8.68774292 4.20914551 9.42034912 4.57446289 C10.93095714 5.3290865 12.44055707 6.08573099 13.94921875 6.84423828 C16.19762106 7.97368825 18.45004706 9.09475633 20.703125 10.21484375 C22.18254766 10.95521785 23.66172126 11.69608989 25.140625 12.4375 C25.78920471 12.75976562 26.43778442 13.08203125 27.10601807 13.4140625 C34.90045142 17.34813758 42.36478421 21.70519112 50 26 C50 44.15 50 62.3 50 81 C24.84158416 94.72277228 24.84158416 94.72277228 14.9375 99.5625 C12.94570815 100.54112605 10.95478799 101.52152871 8.96484375 102.50390625 C8.1255835 102.91455322 7.28632324 103.3252002 6.42163086 103.74829102 C3.92341864 104.99616859 3.92341864 104.99616859 1.36523438 106.65942383 C-1 108 -1 108 -3.80859375 107.9453125 C-7.88656084 106.73739569 -11.34942943 104.92496635 -15.0625 102.875 C-16.7270241 101.97630612 -18.39245398 101.07928869 -20.05859375 100.18359375 C-20.98397949 99.68456543 -21.90936523 99.18553711 -22.86279297 98.67138672 C-26.44655619 96.76209154 -30.05004746 94.89401522 -33.66015625 93.03515625 C-34.31740189 92.69665649 -34.97464752 92.35815674 -35.65180969 92.00939941 C-38.30504582 90.6438375 -40.95888028 89.27944848 -43.61355591 87.91668701 C-45.48542272 86.95524187 -47.35608243 85.99148328 -49.2265625 85.02734375 C-50.31533691 84.46781006 -51.40411133 83.90827637 -52.52587891 83.33178711 C-55 82 -55 82 -56 81 C-56.0935919 79.28134591 -56.11744611 77.55884256 -56.11352539 75.83764648 C-56.11344986 74.73658066 -56.11337433 73.63551483 -56.11329651 72.50108337 C-56.10813522 71.3031868 -56.10297394 70.10529022 -56.09765625 68.87109375 C-56.0962413 67.65172623 -56.09482635 66.4323587 -56.09336853 65.17604065 C-56.08774967 61.2631693 -56.07519396 57.35035419 -56.0625 53.4375 C-56.05748743 50.79231853 -56.0529241 48.14713617 -56.04882812 45.50195312 C-56.03777411 39.00128274 -56.02101764 32.50064539 -56 26 C-31.86463873 12.73037495 -31.86463873 12.73037495 -19.74267578 6.63110352 C-18.46250531 5.98432458 -17.18528999 5.33167273 -15.91064453 4.67407227 C-14.00603795 3.69154462 -12.09415922 2.72485241 -10.1796875 1.76171875 C-9.08382324 1.20444092 -7.98795898 0.64716309 -6.85888672 0.07299805 C-3.72743921 -1.10229758 -2.99331123 -1.2902691 0 0 Z " fill="#000000" transform="translate(89,22)"/>
<path d="M0 0 C2.44883791 1.12901436 4.85806671 2.28897807 7.265625 3.5 C7.97668396 3.85457275 8.68774292 4.20914551 9.42034912 4.57446289 C10.93095714 5.3290865 12.44055707 6.08573099 13.94921875 6.84423828 C16.19762106 7.97368825 18.45004706 9.09475633 20.703125 10.21484375 C22.18254766 10.95521785 23.66172126 11.69608989 25.140625 12.4375 C25.78920471 12.75976562 26.43778442 13.08203125 27.10601807 13.4140625 C34.90045142 17.34813758 42.36478421 21.70519112 50 26 C50 44.15 50 62.3 50 81 C24.84158416 94.72277228 24.84158416 94.72277228 14.9375 99.5625 C12.94570815 100.54112605 10.95478799 101.52152871 8.96484375 102.50390625 C8.1255835 102.91455322 7.28632324 103.3252002 6.42163086 103.74829102 C3.92341864 104.99616859 3.92341864 104.99616859 1.36523438 106.65942383 C-1 108 -1 108 -3.80859375 107.9453125 C-7.88656084 106.73739569 -11.34942943 104.92496635 -15.0625 102.875 C-16.7270241 101.97630612 -18.39245398 101.07928869 -20.05859375 100.18359375 C-20.98397949 99.68456543 -21.90936523 99.18553711 -22.86279297 98.67138672 C-26.44655619 96.76209154 -30.05004746 94.89401522 -33.66015625 93.03515625 C-34.31740189 92.69665649 -34.97464752 92.35815674 -35.65180969 92.00939941 C-38.30504582 90.6438375 -40.95888028 89.27944848 -43.61355591 87.91668701 C-45.48542272 86.95524187 -47.35608243 85.99148328 -49.2265625 85.02734375 C-50.31533691 84.46781006 -51.40411133 83.90827637 -52.52587891 83.33178711 C-55 82 -55 82 -56 81 C-56.0935919 79.28134591 -56.11744611 77.55884256 -56.11352539 75.83764648 C-56.11344986 74.73658066 -56.11337433 73.63551483 -56.11329651 72.50108337 C-56.10813522 71.3031868 -56.10297394 70.10529022 -56.09765625 68.87109375 C-56.0962413 67.65172623 -56.09482635 66.4323587 -56.09336853 65.17604065 C-56.08774967 61.2631693 -56.07519396 57.35035419 -56.0625 53.4375 C-56.05748743 50.79231853 -56.0529241 48.14713617 -56.04882812 45.50195312 C-56.03777411 39.00128274 -56.02101764 32.50064539 -56 26 C-31.86463873 12.73037495 -31.86463873 12.73037495 -19.74267578 6.63110352 C-18.46250531 5.98432458 -17.18528999 5.33167273 -15.91064453 4.67407227 C-14.00603795 3.69154462 -12.09415922 2.72485241 -10.1796875 1.76171875 C-9.08382324 1.20444092 -7.98795898 0.64716309 -6.85888672 0.07299805 C-3.72743921 -1.10229758 -2.99331123 -1.2902691 0 0 Z M-9.97265625 7.2734375 C-10.94630127 7.76408691 -11.91994629 8.25473633 -12.9230957 8.76025391 C-14.47710083 9.55955322 -14.47710083 9.55955322 -16.0625 10.375 C-17.1249292 10.91431152 -18.1873584 11.45362305 -19.28198242 12.00927734 C-35.4849859 19.89987875 -35.4849859 19.89987875 -51 29 C-51.43752893 31.17659601 -51.43752893 31.17659601 -51.34057617 33.72509766 C-51.34034958 34.70596344 -51.34012299 35.68682922 -51.33988953 36.69741821 C-51.32440567 37.75891083 -51.30892181 38.82040344 -51.29296875 39.9140625 C-51.28872391 40.99883881 -51.28447906 42.08361511 -51.28010559 43.20126343 C-51.263273 46.67609167 -51.22561189 50.15034618 -51.1875 53.625 C-51.17245911 55.97655414 -51.15876967 58.32811735 -51.14648438 60.6796875 C-51.11335454 66.45332173 -51.06310982 72.22661989 -51 78 C-39.41076289 84.41674309 -27.77855131 90.74861951 -16 96.8125 C-14.99259766 97.34584961 -13.98519531 97.87919922 -12.94726562 98.42871094 C-11.51930664 99.15429199 -11.51930664 99.15429199 -10.0625 99.89453125 C-9.22847656 100.32612549 -8.39445312 100.75771973 -7.53515625 101.20239258 C-2.120985 102.9057918 2.31342961 100.59286021 7.1484375 98.15625 C8.32019531 97.5684375 9.49195313 96.980625 10.69921875 96.375 C11.30556152 96.065625 11.9119043 95.75625 12.53662109 95.4375 C14.33111578 94.5223792 16.13228857 93.62039123 17.93359375 92.71875 C27.13400391 88.07349395 35.99656409 83.0644327 45 78 C45 61.83 45 45.66 45 29 C33.37541323 22.57588626 21.72565921 16.24789947 9.875 10.25 C8.85083984 9.7250293 7.82667969 9.20005859 6.77148438 8.65917969 C5.33385742 7.93843262 5.33385742 7.93843262 3.8671875 7.203125 C2.60044189 6.56358887 2.60044189 6.56358887 1.30810547 5.91113281 C-3.13042387 4.15900763 -5.9583624 5.23239809 -9.97265625 7.2734375 Z " fill="#0BF8FF" transform="translate(89,22)"/>
<path d="M0 0 C3.83292441 -0.14648406 7.66511953 -0.23446464 11.5 -0.3125 C12.57765625 -0.35439453 13.6553125 -0.39628906 14.765625 -0.43945312 C21.08744175 -0.53582228 25.33668394 -0.00129456 30.59179688 3.62426758 C33.13852596 6.11227354 33.18093164 9.00216151 33.25 12.375 C33.197706 16.40163764 32.62443839 18.81318195 30 22 C26.75575182 25.00527454 24.6229365 25.3436763 20.25 25.1875 C18.77273437 25.14689453 18.77273437 25.14689453 17.265625 25.10546875 C16.51796875 25.07066406 15.7703125 25.03585938 15 25 C15.33 24.01 15.66 23.02 16 22 C17.4540625 21.5359375 17.4540625 21.5359375 18.9375 21.0625 C21.98365528 20.2861339 21.98365528 20.2861339 23.4375 18.375 C24.29114365 14.77072681 24.03017195 11.55257826 23 8 C20.09622366 4.64948884 16.16111551 4.15424883 12 3 C12.06871084 8.80283906 12.15659484 14.60494601 12.26245117 20.40722656 C12.29575528 22.38207906 12.32376997 24.357028 12.34643555 26.33203125 C12.37988122 29.16708577 12.43219046 32.001252 12.48828125 34.8359375 C12.49467117 35.72243988 12.5010611 36.60894226 12.50764465 37.52230835 C12.53733589 38.753358 12.53733589 38.753358 12.56762695 40.00927734 C12.57873001 40.73319672 12.58983307 41.45711609 12.60127258 42.20297241 C12.87490507 44.41648203 12.87490507 44.41648203 16 46 C16 46.66 16 47.32 16 48 C10.72 48 5.44 48 0 48 C0 47.34 0 46.68 0 46 C0.99 45.34 1.98 44.68 3 44 C3.4732293 42.15274772 3.4732293 42.15274772 3.43237305 40.00927734 C3.45216721 39.18857758 3.47196136 38.36787781 3.49235535 37.52230835 C3.49874527 36.63580597 3.50513519 35.74930359 3.51171875 34.8359375 C3.53864555 33.47512558 3.53864555 33.47512558 3.56611633 32.08682251 C3.62039427 29.18292928 3.65417073 26.279202 3.6875 23.375 C3.72065767 21.40883098 3.75514587 19.44268391 3.79101562 17.4765625 C3.87613065 12.65116112 3.94285806 7.82581045 4 3 C2.68 3 1.36 3 0 3 C0 2.01 0 1.02 0 0 Z " fill="#35F9FF" transform="translate(85,51)"/>
<path d="M0 0 C0.71542969 -0.02384766 1.43085937 -0.04769531 2.16796875 -0.07226562 C4.2578125 -0.06640625 4.2578125 -0.06640625 7.875 0.5625 C10.68842146 3.78965991 10.875 5.22428931 10.875 9.5625 C6.875 9.5625 6.875 9.5625 4.75 7.625 C4.13125 6.944375 3.5125 6.26375 2.875 5.5625 C0.03416359 4.14208179 -1.97977278 4.24797728 -5.125 4.5625 C-7.66502013 5.93533423 -7.66502013 5.93533423 -9.125 8.5625 C-9.45138734 11.32099942 -9.31134339 13.76734912 -9.125 16.5625 C-8.32449219 16.80033203 -8.32449219 16.80033203 -7.5078125 17.04296875 C9.34433678 22.32019889 9.34433678 22.32019889 12.875 28.5625 C13.75742157 33.4123984 13.99655558 38.42101848 11.66796875 42.8671875 C8.96787295 46.16198795 7.07694103 47.73671747 2.875 48.5625 C1.28807361 48.64116959 -0.30178249 48.67034114 -1.890625 48.66015625 C-2.78007813 48.65693359 -3.66953125 48.65371094 -4.5859375 48.65039062 C-5.96652344 48.63782227 -5.96652344 48.63782227 -7.375 48.625 C-8.77878906 48.61823242 -8.77878906 48.61823242 -10.2109375 48.61132812 C-12.51565247 48.59956938 -14.82033446 48.58163468 -17.125 48.5625 C-17.125 43.6125 -17.125 38.6625 -17.125 33.5625 C-15.805 33.8925 -14.485 34.2225 -13.125 34.5625 C-12.83625 35.67625 -12.5475 36.79 -12.25 37.9375 C-11.43258671 41.56541092 -11.43258671 41.56541092 -9.125 43.5625 C-4.19165679 44.70096382 -0.70078471 44.85039235 3.875 42.5625 C5.95476712 40.40178533 5.95476712 40.40178533 6.875 37.5625 C6.65650791 34.32693801 6.65650791 34.32693801 5.875 31.5625 C4.7303125 31.2221875 4.7303125 31.2221875 3.5625 30.875 C-12.28994845 25.23260309 -12.28994845 25.23260309 -15.125 19.5625 C-16.29929535 15.07352701 -16.50188081 11.6722046 -15 7.25 C-10.87825421 1.34216437 -7.0605632 -0.10931655 0 0 Z " fill="#3FF9FF" transform="translate(70.125,50.4375)"/>
<path d="M0 0 C3.83292441 -0.14648406 7.66511953 -0.23446464 11.5 -0.3125 C12.57765625 -0.35439453 13.6553125 -0.39628906 14.765625 -0.43945312 C21.08744175 -0.53582228 25.33668394 -0.00129456 30.59179688 3.62426758 C33.13852596 6.11227354 33.18093164 9.00216151 33.25 12.375 C33.197706 16.40163764 32.62443839 18.81318195 30 22 C26.75575182 25.00527454 24.6229365 25.3436763 20.25 25.1875 C18.77273437 25.14689453 18.77273437 25.14689453 17.265625 25.10546875 C16.51796875 25.07066406 15.7703125 25.03585938 15 25 C15.33 24.01 15.66 23.02 16 22 C17.4540625 21.5359375 17.4540625 21.5359375 18.9375 21.0625 C21.98365528 20.2861339 21.98365528 20.2861339 23.4375 18.375 C24.29114365 14.77072681 24.03017195 11.55257826 23 8 C20.1132193 4.6690992 16.17456188 4.04364047 12 3 C12 2.67 12 2.34 12 2 C5.91591528 1.80185739 5.91591528 1.80185739 0 3 C0 2.01 0 1.02 0 0 Z " fill="#61FAFF" transform="translate(85,51)"/>
<path d="M0 0 C0.33 0 0.66 0 1 0 C2.03253149 11.64466067 2.03253149 11.64466067 -1.75 16.1875 C-4.63255078 19.17923831 -7.17838629 19.90969612 -11.29003906 20.11352539 C-12.5154541 20.10567017 -12.5154541 20.10567017 -13.765625 20.09765625 C-14.65507813 20.09443359 -15.54453125 20.09121094 -16.4609375 20.08789062 C-17.38132812 20.07951172 -18.30171875 20.07113281 -19.25 20.0625 C-20.18585937 20.05798828 -21.12171875 20.05347656 -22.0859375 20.04882812 C-24.39065247 20.03706938 -26.69533446 20.01913468 -29 20 C-29 15.05 -29 10.1 -29 5 C-27.68 5.33 -26.36 5.66 -25 6 C-24.71125 7.11375 -24.4225 8.2275 -24.125 9.375 C-23.30758671 13.00291092 -23.30758671 13.00291092 -21 15 C-16.06665679 16.13846382 -12.57578471 16.28789235 -8 14 C-5.92023288 11.83928533 -5.92023288 11.83928533 -5 9 C-5.21849209 5.76443801 -5.21849209 5.76443801 -6 3 C-5.01 3.66 -4.02 4.32 -3 5 C-2.8125 8.625 -2.8125 8.625 -3 12 C-2.34 11.67 -1.68 11.34 -1 11 C-0.5316735 8.41394668 -0.5316735 8.41394668 -0.375 5.4375 C-0.30023438 4.42558594 -0.22546875 3.41367188 -0.1484375 2.37109375 C-0.09945312 1.58863281 -0.05046875 0.80617188 0 0 Z " fill="#93FBFF" transform="translate(82,79)"/>
<path d="M0 0 C0.72896484 -0.03738281 1.45792969 -0.07476562 2.20898438 -0.11328125 C4.33984375 -0.1484375 4.33984375 -0.1484375 8.0625 0.375 C10.89501434 3.5884958 11.0625 5.0381029 11.0625 9.375 C7.0625 9.375 7.0625 9.375 4.9375 7.4375 C4.31875 6.756875 3.7 6.07625 3.0625 5.375 C0.22166359 3.95458179 -1.79227278 4.06047728 -4.9375 4.375 C-8.06907632 6.57556715 -8.82248223 7.87658965 -9.6875 11.625 C-9.77 12.5325 -9.8525 13.44 -9.9375 14.375 C-10.39125 13.88 -10.845 13.385 -11.3125 12.875 C-12.81385519 11.14890663 -12.81385519 11.14890663 -14.9375 11.375 C-14.9375 13.025 -14.9375 14.675 -14.9375 16.375 C-15.2675 16.375 -15.5975 16.375 -15.9375 16.375 C-15.77344462 9.66364336 -14.78783511 6.10703426 -9.9375 1.375 C-6.78992606 -0.19878697 -3.45354524 0.06682321 0 0 Z " fill="#6EFAFF" transform="translate(69.9375,50.625)"/>
<path d="M0 0 C0.66 0 1.32 0 2 0 C2.103125 1.093125 2.20625 2.18625 2.3125 3.3125 C3.06151001 7.44354842 3.06151001 7.44354842 6 10 C8.49443774 10.78798055 8.49443774 10.78798055 11.1875 11.1875 C12.08855469 11.34605469 12.98960938 11.50460938 13.91796875 11.66796875 C14.94857422 11.83232422 14.94857422 11.83232422 16 12 C16 12.33 16 12.66 16 13 C10.72 13 5.44 13 0 13 C0 8.71 0 4.42 0 0 Z " fill="#17F8FF" transform="translate(54,85)"/>
<path d="M0 0 C4.95 0 9.9 0 15 0 C17 4 17 4 17 8 C15.68 8 14.36 8 13 8 C11.82926794 6.47154426 10.65966748 4.94215103 9.50390625 3.40234375 C6.74312231 0.82800236 3.64862629 1.12368225 0 1 C0 0.67 0 0.34 0 0 Z " fill="#37F9FF" transform="translate(64,52)"/>
<path d="M0 0 C0.66 0.33 1.32 0.66 2 1 C0.68 2.32 -0.64 3.64 -2 5 C-1.67 5.33 -1.34 5.66 -1 6 C-0.34 5.67 0.32 5.34 1 5 C0.67 7.64 0.34 10.28 0 13 C-0.45375 12.505 -0.9075 12.01 -1.375 11.5 C-2.87635519 9.77390663 -2.87635519 9.77390663 -5 10 C-5 11.65 -5 13.3 -5 15 C-5.33 15 -5.66 15 -6 15 C-5.83560987 8.27494919 -4.78944649 4.78944649 0 0 Z " fill="#9EFCFF" transform="translate(60,52)"/>
<path d="M0 0 C2.62386487 3.06117568 3 3.73173127 3 8 C1.68 8 0.36 8 -1 8 C-1 7.34 -1 6.68 -1 6 C-0.34 6 0.32 6 1 6 C0.67 4.02 0.34 2.04 0 0 Z " fill="#B6FDFF" transform="translate(78,52)"/>
</svg>
