<?xml version="1.0" encoding="UTF-8"?>
<svg version="1.1" xmlns="http://www.w3.org/2000/svg" width="512" height="512">
<path d="M0 0 C4.12279192 0.00914431 8.24551904 -0.00496515 12.36829758 -0.01591969 C20.42114874 -0.03361055 28.47384991 -0.02990731 36.5267067 -0.01826912 C43.07743169 -0.00919766 49.62811496 -0.00802676 56.17884445 -0.01236439 C57.11483144 -0.01297732 58.05081843 -0.01359025 59.01516867 -0.01422176 C60.9172179 -0.01550079 62.81926713 -0.01679765 64.72131634 -0.01811212 C82.51389757 -0.02949029 100.30639608 -0.01644775 118.09896374 0.00508934 C133.3317681 0.0229578 148.56445049 0.01985291 163.79725266 0.0014143 C181.53063333 -0.02004141 199.26394168 -0.02839191 216.99733353 -0.01613665 C218.89198429 -0.01486259 220.78663507 -0.0136051 222.68128586 -0.01236439 C223.61324075 -0.01174729 224.54519565 -0.01113018 225.5053916 -0.01049438 C232.04044057 -0.00705555 238.57544327 -0.01283799 245.11048508 -0.0222826 C253.08571738 -0.03355638 261.06079241 -0.03035036 269.03600693 -0.00915962 C273.09708423 0.00127898 277.15790031 0.00559719 281.21897507 -0.00775623 C315.20309151 -0.10993334 342.84879771 5.5528535 368.02772141 30.05024242 C391.7657425 55.03570204 396.06230555 83.83956048 395.95296383 117.09283352 C395.94381952 121.21562544 395.95792898 125.33835256 395.96888351 129.4611311 C395.98657438 137.51398226 395.98287114 145.56668343 395.97123295 153.61954021 C395.96216149 160.17026521 395.96099059 166.72094848 395.96532822 173.27167797 C395.96594115 174.20766496 395.96655408 175.14365195 395.96718559 176.10800219 C395.96846462 178.01005142 395.96976148 179.91210065 395.97107595 181.81414986 C395.98245411 199.60673109 395.96941158 217.39922959 395.94787449 235.19179726 C395.93000603 250.42460162 395.93311092 265.65728401 395.95154953 280.89008617 C395.97300524 298.62346685 395.98135574 316.3567752 395.96910048 334.09016705 C395.96782642 335.98481781 395.96656893 337.87946859 395.96532822 339.77411938 C395.96471111 340.70607427 395.96409401 341.63802917 395.96345821 342.59822512 C395.96001938 349.13327409 395.96580182 355.66827679 395.97524643 362.2033186 C395.98652021 370.17855089 395.98331419 378.15362593 395.96212345 386.12884045 C395.95168485 390.18991775 395.94736664 394.25073383 395.96072006 398.31180859 C396.06289717 432.29592503 390.40011032 459.94163123 365.90272141 485.12055492 C340.91726179 508.85857602 312.11340335 513.15513907 278.86013031 513.04579735 C274.73733839 513.03665304 270.61461127 513.0507625 266.49183273 513.06171703 C258.43898157 513.0794079 250.3862804 513.07570466 242.33342361 513.06406647 C235.78269862 513.05499501 229.23201535 513.05382411 222.68128586 513.05816174 C221.74529887 513.05877467 220.80931188 513.0593876 219.84496164 513.06001911 C217.94291241 513.06129814 216.04086318 513.062595 214.13881397 513.06390947 C196.34623274 513.07528763 178.55373423 513.0622451 160.76116657 513.04070801 C145.52836221 513.02283955 130.29567982 513.02594444 115.06287766 513.04438305 C97.32949698 513.06583876 79.59618863 513.07418926 61.86279678 513.06193399 C59.96814602 513.06065994 58.07349524 513.05940245 56.17884445 513.05816174 C55.24688956 513.05754463 54.31493466 513.05692753 53.35473871 513.05629173 C46.81968974 513.0528529 40.28468704 513.05863534 33.74964523 513.06807995 C25.77441293 513.07935373 17.7993379 513.07614771 9.82412338 513.05495697 C5.76304608 513.04451837 1.70223 513.04020016 -2.35884476 513.05355358 C-36.3429612 513.15573069 -63.9886674 507.49294384 -89.16759109 482.99555492 C-112.90561219 458.01009531 -117.20217524 429.20623687 -117.09283352 395.95296383 C-117.08368921 391.83017191 -117.09779867 387.70744478 -117.1087532 383.58466625 C-117.12644407 375.53181509 -117.12274083 367.47911392 -117.11110264 359.42625713 C-117.10203118 352.87553214 -117.10086028 346.32484887 -117.10519791 339.77411938 C-117.10581084 338.83813239 -117.10642377 337.9021454 -117.10705528 336.93779516 C-117.10833431 335.03574593 -117.10963117 333.1336967 -117.11094564 331.23164749 C-117.1223238 313.43906626 -117.10928127 295.64656775 -117.08774418 277.85400009 C-117.06987572 262.62119573 -117.07298061 247.38851334 -117.09141922 232.15571117 C-117.11287493 214.4223305 -117.12122543 196.68902215 -117.10897017 178.9556303 C-117.10769611 177.06097954 -117.10643862 175.16632876 -117.10519791 173.27167797 C-117.10427225 171.87374563 -117.10427225 171.87374563 -117.1033279 170.44757223 C-117.09988907 163.91252326 -117.10567151 157.37752056 -117.11511612 150.84247875 C-117.1263899 142.86724645 -117.12318388 134.89217142 -117.10199314 126.9169569 C-117.09155454 122.8558796 -117.08723633 118.79506352 -117.10058975 114.73398876 C-117.20276686 80.74987232 -111.53998001 53.10416612 -87.04259109 27.92524242 C-62.05713148 4.18722132 -33.25327304 -0.10934172 0 0 Z M-28.56993484 126.52289867 C-29.34079422 127.21254711 -30.11165359 127.90219555 -30.90587234 128.61274242 C-41.2172522 138.35888052 -48.03974442 151.16379353 -48.77305984 165.49164867 C-49.08843791 183.4483632 -45.59372836 199.02497943 -32.78087234 212.47602367 C-28.6678321 216.28385599 -24.25866422 219.46237036 -19.56993484 222.52289867 C-18.62376297 223.14680492 -17.67759109 223.77071117 -16.70274734 224.41352367 C-1.2679632 233.88224412 16.32198425 239.89921629 33.43006516 245.58539867 C40.8835422 248.08665635 47.94557154 250.96637289 54.93006516 254.58539867 C56.06895187 255.16656445 56.06895187 255.16656445 57.23084641 255.75947094 C64.26430517 259.56688494 70.70250986 264.79482535 73.43006516 272.52289867 C74.99653218 279.55976226 74.71277057 286.01369856 71.43006516 292.52289867 C66.57583948 298.46557185 59.86694412 301.26922544 52.43006516 302.52289867 C33.52987833 303.77056054 10.84979734 302.97878463 -4.56993484 290.52289867 C-5.69420242 287.23896313 -5.69420242 287.23896313 -6.21446609 283.38617992 C-6.31458496 282.706134 -6.41470383 282.02608807 -6.5178566 281.32543468 C-6.83099586 279.16474122 -7.10769692 277.00127744 -7.38243484 274.83539867 C-7.68271269 272.66048459 -7.99028483 270.48673446 -8.30057144 268.31322765 C-8.576952 266.35006878 -8.83522952 264.38438684 -9.09263992 262.41865063 C-9.26239519 259.63620663 -9.26239519 259.63620663 -10.56993484 258.52289867 C-13.67244685 258.43415733 -16.75261605 258.40771412 -19.85509109 258.42524242 C-20.78591003 258.42665737 -21.71672897 258.42807232 -22.67575455 258.42953014 C-25.66134676 258.43514695 -28.64686514 258.44770228 -31.63243484 258.46039867 C-33.65131397 258.46541151 -35.67019427 258.46997479 -37.68907547 258.47407055 C-42.64939056 258.48512184 -47.60965017 258.50239772 -52.56993484 258.52289867 C-52.91888689 266.31953702 -53.18466152 274.11432185 -53.34711742 281.91682625 C-53.42514053 285.54134895 -53.53069481 289.16050224 -53.70152664 292.78193188 C-55.0943682 307.82899505 -55.0943682 307.82899505 -51.16807938 321.6854353 C-47.77581221 324.90407782 -43.98749866 326.54307222 -39.55485916 327.87682629 C-36.2366084 328.95688268 -33.27870721 330.64925993 -30.19493484 332.27289867 C4.97514329 348.60795112 53.00278111 350.35959482 89.36756516 337.11664867 C105.13206744 331.08475963 118.96027784 320.35611383 126.30506516 304.89789867 C132.68396801 290.40039219 132.86429359 271.40551836 127.68787766 256.49164867 C118.66728389 235.20080625 101.84612142 223.79375283 81.43006516 214.52289867 C80.37174484 214.02532055 79.31342453 213.52774242 78.22303391 213.01508617 C71.71150186 210.07646629 65.1162869 207.71834855 58.34510422 205.45771313 C48.2530469 202.0792404 38.43525487 198.44542278 28.80506516 193.89789867 C27.87637619 193.4671101 26.94768723 193.03632153 25.99085617 192.59247875 C18.9347441 189.15727481 11.64239472 185.01642222 8.43006516 177.52289867 C6.6798011 171.61291616 6.90560715 166.19157097 9.26600266 160.51117992 C12.85892274 154.37427951 18.48359767 150.9904486 25.15662766 149.03071117 C43.37625145 144.96103576 61.81698634 148.26823827 79.43006516 153.52289867 C79.47252365 154.10990551 79.51498215 154.69691235 79.55872726 155.30170727 C80.13262853 162.08104034 81.41773063 168.53732047 82.99256516 175.14789867 C84.19912766 180.28352367 84.19912766 180.28352367 85.43006516 185.52289867 C98.96006516 185.52289867 112.49006516 185.52289867 126.43006516 185.52289867 C126.68316279 177.68965466 126.90185055 169.87065255 127.0343132 162.03657055 C127.08332859 159.37272604 127.16443299 156.71542283 127.25989914 154.05219555 C127.39384295 150.21868058 127.4558157 146.38958172 127.50428391 142.55414867 C127.56105804 141.37050732 127.61783218 140.18686596 127.67632675 138.96735668 C127.68008373 133.90030916 127.63942338 130.79851778 124.05672836 127.01952648 C121.26066408 124.95415193 118.47768895 123.19033487 115.43006516 121.52289867 C114.65509689 121.08486919 113.88012863 120.64683971 113.08167648 120.19553661 C111.16725681 119.14976407 109.23244006 118.22854787 107.24256516 117.33539867 C106.52262375 117.00644604 105.80268234 116.6774934 105.06092453 116.3385725 C65.41168536 98.69119826 5.54055821 95.92565865 -28.56993484 126.52289867 Z M229.43006516 180.52289867 C227.96540002 182.46706728 226.71330331 184.44997549 225.43006516 186.52289867 C224.77006516 186.85289867 224.11006516 187.18289867 223.43006516 187.52289867 C223.44166672 186.9170393 223.45326828 186.31117992 223.46522141 185.68696117 C223.47424484 184.84907055 223.48326828 184.01117992 223.49256516 183.14789867 C223.50416672 182.3357893 223.51576828 181.52367992 223.52772141 180.68696117 C223.39188335 176.28580826 222.86820477 171.90429487 222.43006516 167.52289867 C197.02006516 167.52289867 171.61006516 167.52289867 145.43006516 167.52289867 C145.43006516 178.41289867 145.43006516 189.30289867 145.43006516 200.52289867 C153.68006516 202.17289867 161.93006516 203.82289867 170.43006516 205.52289867 C170.43006516 260.30289867 170.43006516 315.08289867 170.43006516 371.52289867 C167.46006516 371.85289867 164.49006516 372.18289867 161.43006516 372.52289867 C159.25270553 372.97406328 157.0833101 373.46793864 154.93006516 374.02289867 C153.90912766 374.28071117 152.88819016 374.53852367 151.83631516 374.80414867 C149.50018262 375.29439824 149.50018262 375.29439824 148.43006516 376.52289867 C148.43006516 387.08289867 148.43006516 397.64289867 148.43006516 408.52289867 C180.11006516 408.52289867 211.79006516 408.52289867 244.43006516 408.52289867 C244.43006516 397.63289867 244.43006516 386.74289867 244.43006516 375.52289867 C231.37327098 371.35112357 231.37327098 371.35112357 225.43006516 371.52289867 C225.76006516 356.67289867 226.09006516 341.82289867 226.43006516 326.52289867 C228.41006516 328.83289867 230.39006516 331.14289867 232.43006516 333.52289867 C245.03229567 343.83381455 259.67753864 346.04261677 275.43006516 344.52289867 C291.43341117 342.27985202 304.44121394 333.96623644 314.43006516 321.52289867 C332.53750038 296.26378735 334.69493074 261.63365332 330.66028976 231.62421703 C327.17403783 211.0014195 318.79105628 190.24502027 302.43006516 176.52289867 C279.3990181 160.33891966 249.73687643 159.55799629 229.43006516 180.52289867 Z " fill="#000000" transform="translate(116.5699348449707,-0.5228986740112305)"/>
<path d="M0 0 C8.78014787 5.46616581 12.30363877 14.29094901 14.625 24 C18.21921787 42.57192673 19.62553092 68.36321345 8.90234375 84.7890625 C5.11680371 89.53176643 1.48445223 92.46279565 -4.5625 93.4375 C-15.22311259 94.37015603 -22.8393213 93.49141825 -31.5625 87.3125 C-34.17263952 84.8654942 -34.53221821 84.0296492 -34.71640015 80.42803955 C-34.72926056 79.13597595 -34.74212097 77.84391235 -34.75537109 76.51269531 C-34.76354858 75.80027679 -34.77172607 75.08785828 -34.78015137 74.35385132 C-34.80500621 71.99111777 -34.82152299 69.62844437 -34.8359375 67.265625 C-34.84126118 66.45853844 -34.84658485 65.65145187 -34.85206985 64.81990814 C-34.87880398 60.54661509 -34.89817654 56.27335125 -34.91259766 52 C-34.92923122 47.59027906 -34.97399659 43.18130757 -35.0249691 38.77186966 C-35.05866243 35.3780229 -35.07017739 31.98435342 -35.07582474 28.59035492 C-35.08253331 26.96526117 -35.09774531 25.34017892 -35.12171555 23.71524811 C-35.15341248 21.43617666 -35.15339818 19.1591177 -35.14599609 16.87988281 C-35.15408295 15.58463684 -35.1621698 14.28939087 -35.17050171 12.95489502 C-34.26310639 7.70545621 -31.60764964 5.03643517 -27.4140625 1.7578125 C-19.187632 -2.65848177 -8.73958644 -3.85816676 0 0 Z " fill="#000000" transform="translate(376.5625,208.5625)"/>
</svg>
